<?xml version="1.0" encoding="iso-8859-1"?>
<!-- Generator: Adobe Illustrator 19.0.0, SVG Export Plug-In . SVG Version: 6.00 Build 0)  -->
<svg version="1.1" id="Capa_1" xmlns="http://www.w3.org/2000/svg" xmlns:xlink="http://www.w3.org/1999/xlink" x="0px" y="0px"
	 viewBox="0 0 60 60" style="enable-background:new 0 0 60 60;" xml:space="preserve">
<path style="fill:#E4C05C;" d="M16.924,41.5h31.827c3.558-3.15,6.041-7.241,7.249-11.695c-0.264,0.144-0.527,0.289-0.798,0.425
	c-11.852,5.935-26.271,1.138-32.206-10.714C20.249,14.028,19.805,7.991,21.294,2.5C10.03,8.672,5.579,22.7,11.378,34.281
	C12.793,37.107,14.694,39.526,16.924,41.5z"/>
<g>
	<path style="fill:#F29C1F;" d="M54,45.5H6c-0.553,0-1,0.448-1,1s0.447,1,1,1h48c0.553,0,1-0.448,1-1S54.553,45.5,54,45.5z"/>
	<path style="fill:#F29C1F;" d="M49,50.5H11c-0.553,0-1,0.448-1,1s0.447,1,1,1h38c0.553,0,1-0.448,1-1S49.553,50.5,49,50.5z"/>
	<path style="fill:#F29C1F;" d="M45,55.5H15c-0.553,0-1,0.448-1,1s0.447,1,1,1h30c0.553,0,1-0.448,1-1S45.553,55.5,45,55.5z"/>
	<path style="fill:#F29C1F;" d="M59,40.5H1c-0.553,0-1,0.448-1,1s0.447,1,1,1h58c0.553,0,1-0.448,1-1S59.553,40.5,59,40.5z"/>
</g>
<g>
</g>
<g>
</g>
<g>
</g>
<g>
</g>
<g>
</g>
<g>
</g>
<g>
</g>
<g>
</g>
<g>
</g>
<g>
</g>
<g>
</g>
<g>
</g>
<g>
</g>
<g>
</g>
<g>
</g>
</svg>
